<?xml version="1.0" encoding="UTF-8"?>
<svg version="1.1" xmlns="http://www.w3.org/2000/svg" width="256" height="256">
<path d="M0 0 C0.8725078 -0.00453111 1.74501561 -0.00906223 2.64396304 -0.01373065 C5.56719519 -0.02638947 8.49024139 -0.02475331 11.41349792 -0.02310181 C13.5096053 -0.02908614 15.60571048 -0.03589147 17.70181274 -0.04345703 C23.39609886 -0.06113422 29.09032488 -0.06581315 34.78463578 -0.0670886 C39.538572 -0.06898762 44.29249422 -0.07634522 49.04642504 -0.08343279 C60.26319093 -0.099721 71.4799247 -0.10460136 82.69670105 -0.10317993 C94.26593842 -0.10197847 105.83498924 -0.12308024 117.40417939 -0.15466726 C127.33808991 -0.18082266 137.27193947 -0.19154753 147.20588416 -0.19026911 C153.13843986 -0.18975925 159.07082981 -0.19545595 165.00335121 -0.21662521 C170.58400148 -0.23599495 176.16432767 -0.2361405 181.7449894 -0.22159195 C183.79119846 -0.21950118 185.83742774 -0.22422068 187.88360214 -0.23631287 C190.68132634 -0.25177327 193.47793422 -0.24245184 196.27563477 -0.22705078 C197.48455917 -0.24248147 197.48455917 -0.24248147 198.7179063 -0.25822389 C205.3729725 -0.17750219 210.54661534 1.82982313 215.57048035 6.23226929 C216.10930847 6.88324585 216.6481366 7.53422241 217.20329285 8.20492554 C217.75758972 8.85332397 218.3118866 9.50172241 218.88298035 10.16976929 C222.36906916 15.229309 222.61859965 19.93556436 222.59571838 25.93913269 C222.6002495 26.81164049 222.60478061 27.6841483 222.60944903 28.58309573 C222.62210786 31.50632788 222.62047169 34.42937408 222.61882019 37.35263062 C222.62480452 39.44873799 222.63160985 41.54484317 222.63917542 43.64094543 C222.6568526 49.33523155 222.66153153 55.02945757 222.66280699 60.72376847 C222.66470601 65.47770469 222.67206361 70.23162691 222.67915118 74.98555773 C222.69543939 86.20232362 222.70031975 97.41905739 222.69889832 108.63583374 C222.69769686 120.20507111 222.71879862 131.77412193 222.75038564 143.34331208 C222.77654104 153.2772226 222.78726591 163.21107216 222.7859875 173.14501685 C222.78547763 179.07757255 222.79117434 185.0099625 222.8123436 190.9424839 C222.83171334 196.52313417 222.83185888 202.10346036 222.81731033 207.68412209 C222.81521956 209.73033115 222.81993907 211.77656043 222.83203125 213.82273483 C222.84749166 216.62045903 222.83817023 219.41706691 222.82276917 222.21476746 C222.83305629 223.02071706 222.84334342 223.82666667 222.85394228 224.65703899 C222.77322058 231.31210519 220.76589526 236.48574803 216.3634491 241.50961304 C215.71247253 242.04844116 215.06149597 242.58726929 214.39079285 243.14242554 C213.74239441 243.69672241 213.09399597 244.25101929 212.4259491 244.82211304 C207.36640938 248.30820185 202.66015403 248.55773234 196.65658569 248.53485107 C195.34782399 248.54164774 195.34782399 248.54164774 194.01262265 248.54858172 C191.0893905 248.56124055 188.1663443 248.55960438 185.24308777 248.55795288 C183.14698039 248.56393721 181.05087522 248.57074254 178.95477295 248.57830811 C173.26048683 248.59598529 167.56626081 248.60066422 161.87194991 248.60193968 C157.11801369 248.6038387 152.36409148 248.6111963 147.61016065 248.61828387 C136.39339477 248.63457208 125.17666099 248.63945244 113.95988464 248.63803101 C102.39064728 248.63682955 90.82159646 248.65793131 79.2524063 248.68951833 C69.31849578 248.71567373 59.38464622 248.7263986 49.45070153 248.72512019 C43.51814583 248.72461033 37.58575588 248.73030703 31.65323448 248.75147629 C26.07258421 248.77084603 20.49225802 248.77099157 14.9115963 248.75644302 C12.86538723 248.75435225 10.81915795 248.75907176 8.77298355 248.77116394 C5.97525935 248.78662435 3.17865148 248.77730292 0.38095093 248.76190186 C-0.42499868 248.77218898 -1.23094828 248.78247611 -2.0613206 248.79307497 C-8.71638681 248.71235327 -13.89002965 246.70502795 -18.91389465 242.30258179 C-19.72213684 241.32611694 -19.72213684 241.32611694 -20.54670715 240.32992554 C-21.10100403 239.6815271 -21.6553009 239.03312866 -22.22639465 238.36508179 C-25.71248347 233.30554207 -25.96201396 228.59928672 -25.93913269 222.59571838 C-25.9436638 221.72321058 -25.94819492 220.85070278 -25.95286334 219.95175534 C-25.96552216 217.02852319 -25.963886 214.10547699 -25.9622345 211.18222046 C-25.96821883 209.08611308 -25.97502416 206.99000791 -25.98258972 204.89390564 C-26.00026691 199.19961952 -26.00494584 193.5053935 -26.00622129 187.8110826 C-26.00812031 183.05714638 -26.01547791 178.30322417 -26.02256548 173.54929334 C-26.03885369 162.33252746 -26.04373405 151.11579368 -26.04231262 139.89901733 C-26.04111117 128.32977997 -26.06221293 116.76072915 -26.09379995 105.19153899 C-26.11995535 95.25762847 -26.13068022 85.32377891 -26.1294018 75.38983423 C-26.12889194 69.45727852 -26.13458864 63.52488857 -26.1557579 57.59236717 C-26.17512764 52.0117169 -26.17527319 46.43139071 -26.16072464 40.85072899 C-26.15863387 38.80451992 -26.16335337 36.75829064 -26.17544556 34.71211624 C-26.19090596 31.91439204 -26.18158453 29.11778417 -26.16618347 26.32008362 C-26.1764706 25.51413401 -26.18675772 24.70818441 -26.19735658 23.87781209 C-26.11663488 17.22274588 -24.10930956 12.04910304 -19.7068634 7.02523804 C-19.05588684 6.48640991 -18.40491028 5.94758179 -17.73420715 5.39242554 C-17.08580872 4.83812866 -16.43741028 4.28383179 -15.7693634 3.71273804 C-10.70982369 0.22664922 -6.00356833 -0.02288127 0 0 Z " fill="#1C1E21" transform="translate(29.671707153320313,3.732574462890625)"/>
<path d="M0 0 C5.28 0 10.56 0 16 0 C16 10.56 16 21.12 16 32 C10.72 32 5.44 32 0 32 C0 37.28 0 42.56 0 48 C-5.28 48 -10.56 48 -16 48 C-16 53.28 -16 58.56 -16 64 C-21.28 64 -26.56 64 -32 64 C-32 69.28 -32 74.56 -32 80 C-37.28 80 -42.56 80 -48 80 C-48 85.28 -48 90.56 -48 96 C-53.28 96 -58.56 96 -64 96 C-64 101.28 -64 106.56 -64 112 C-69.28 112 -74.56 112 -80 112 C-80 117.28 -80 122.56 -80 128 C-85.28 128 -90.56 128 -96 128 C-96 133.28 -96 138.56 -96 144 C-101.28 144 -106.56 144 -112 144 C-112 149.28 -112 154.56 -112 160 C-117.28 160 -122.56 160 -128 160 C-128 165.28 -128 170.56 -128 176 C-133.28 176 -138.56 176 -144 176 C-144 181.28 -144 186.56 -144 192 C-149.28 192 -154.56 192 -160 192 C-160 186.39 -160 180.78 -160 175 C-155.05 175 -150.1 175 -145 175 C-145.020625 172.855 -145.04125 170.71 -145.0625 168.5 C-145.10016681 160.29690362 -144.57924524 152.18183896 -144 144 C-138.72 144 -133.44 144 -128 144 C-128 138.72 -128 133.44 -128 128 C-122.72 128 -117.44 128 -112 128 C-112 122.72 -112 117.44 -112 112 C-106.72 112 -101.44 112 -96 112 C-96 106.72 -96 101.44 -96 96 C-90.72 96 -85.44 96 -80 96 C-80 90.72 -80 85.44 -80 80 C-74.72 80 -69.44 80 -64 80 C-64 74.72 -64 69.44 -64 64 C-58.72 64 -53.44 64 -48 64 C-48 58.39 -48 52.78 -48 47 C-43.05 47 -38.1 47 -33 47 C-33.0395679 42.10846529 -33.0395679 42.10846529 -33.09008789 37.21704102 C-33.09724913 35.47778283 -33.05024702 33.73854696 -33 32 C-32 31 -32 31 -28.62109375 30.90234375 C-27.22652508 30.90808576 -25.83198403 30.92109772 -24.4375 30.9375 C-21.983125 30.958125 -19.52875 30.97875 -17 31 C-17 26.05 -17 21.1 -17 16 C-11.39 16 -5.78 16 0 16 C0 10.72 0 5.44 0 0 Z " fill="#613F58" transform="translate(204,24)"/>
<path d="M0 0 C5.28 0 10.56 0 16 0 C16 4.95 16 9.9 16 15 C11.05 15 6.1 15 1 15 C1 20.61 1 26.22 1 32 C6.28 32 11.56 32 17 32 C17 37.28 17 42.56 17 48 C6.44 48 -4.12 48 -15 48 C-15 37.11 -15 26.22 -15 15 C-10.05 15 -5.1 15 0 15 C0 10.05 0 5.1 0 0 Z " fill="#2E1439" transform="translate(43,184)"/>
<path d="M0 0 C5.28 0 10.56 0 16 0 C16 4.95 16 9.9 16 15 C11.05 15.33 6.1 15.66 1 16 C0.67 20.95 0.34 25.9 0 31 C-4.95 31.33 -9.9 31.66 -15 32 C-15.33 36.95 -15.66 41.9 -16 47 C-20.95 47 -25.9 47 -31 47 C-31 41.72 -31 36.44 -31 31 C-26.05 31 -21.1 31 -16 31 C-16.0395679 26.10846529 -16.0395679 26.10846529 -16.09008789 21.21704102 C-16.09724913 19.47778283 -16.05024702 17.73854696 -16 16 C-15 15 -15 15 -11.62109375 14.90234375 C-10.22652508 14.90808576 -8.83198403 14.92109772 -7.4375 14.9375 C-4.983125 14.958125 -2.52875 14.97875 0 15 C0 10.05 0 5.1 0 0 Z " fill="#48294A" transform="translate(187,40)"/>
<path d="M0 0 C5.28 0 10.56 0 16 0 C16 10.23 16 20.46 16 31 C10.72 31 5.44 31 0 31 C0 20.77 0 10.54 0 0 Z " fill="#2E113C" transform="translate(220,24)"/>
<path d="M0 0 C5.28 0 10.56 0 16 0 C16 5.28 16 10.56 16 16 C10.72 16 5.44 16 0 16 C0 10.72 0 5.44 0 0 Z " fill="#2B1336" transform="translate(60,200)"/>
<path d="M0 0 C5.28 0 10.56 0 16 0 C16 5.28 16 10.56 16 16 C10.72 16 5.44 16 0 16 C0 10.72 0 5.44 0 0 Z " fill="#2F0F41" transform="translate(76,184)"/>
<path d="M0 0 C5.28 0 10.56 0 16 0 C16 5.28 16 10.56 16 16 C10.72 16 5.44 16 0 16 C0 10.72 0 5.44 0 0 Z " fill="#2C1239" transform="translate(156,104)"/>
<path d="M0 0 C5.28 0 10.56 0 16 0 C16 5.28 16 10.56 16 16 C10.72 16 5.44 16 0 16 C0 10.72 0 5.44 0 0 Z " fill="#2C1236" transform="translate(188,72)"/>
<path d="M0 0 C5.28 0 10.56 0 16 0 C16 5.28 16 10.56 16 16 C10.72 16 5.44 16 0 16 C0 10.72 0 5.44 0 0 Z " fill="#51245F" transform="translate(204,24)"/>
<path d="M0 0 C5.28 0 10.56 0 16 0 C16.020625 2.454375 16.04125 4.90875 16.0625 7.4375 C16.071604 8.21150146 16.08070801 8.98550293 16.09008789 9.78295898 C16.09724913 11.52221717 16.05024702 13.26145304 16 15 C15 16 15 16 11.62109375 16.09765625 C10.22652508 16.09191424 8.83198403 16.07890228 7.4375 16.0625 C4.983125 16.041875 2.52875 16.02125 0 16 C0 10.72 0 5.44 0 0 Z " fill="#2B1334" transform="translate(124,136)"/>
<path d="M0 0 C5.28 0 10.56 0 16 0 C16.020625 2.454375 16.04125 4.90875 16.0625 7.4375 C16.071604 8.21150146 16.08070801 8.98550293 16.09008789 9.78295898 C16.09724913 11.52221717 16.05024702 13.26145304 16 15 C15 16 15 16 11.62109375 16.09765625 C10.22652508 16.09191424 8.83198403 16.07890228 7.4375 16.0625 C4.983125 16.041875 2.52875 16.02125 0 16 C0 10.72 0 5.44 0 0 Z " fill="#2C1336" transform="translate(140,120)"/>
<path d="M0 0 C5.28 0 10.56 0 16 0 C16.020625 2.454375 16.04125 4.90875 16.0625 7.4375 C16.071604 8.21150146 16.08070801 8.98550293 16.09008789 9.78295898 C16.09724913 11.52221717 16.05024702 13.26145304 16 15 C15 16 15 16 11.62109375 16.09765625 C10.22652508 16.09191424 8.83198403 16.07890228 7.4375 16.0625 C4.983125 16.041875 2.52875 16.02125 0 16 C0 10.72 0 5.44 0 0 Z " fill="#2A152F" transform="translate(172,88)"/>
<path d="M0 0 C5.28 0 10.56 0 16 0 C16.020625 2.454375 16.04125 4.90875 16.0625 7.4375 C16.071604 8.21150146 16.08070801 8.98550293 16.09008789 9.78295898 C16.09724913 11.52221717 16.05024702 13.26145304 16 15 C15 16 15 16 11.62109375 16.09765625 C10.22652508 16.09191424 8.83198403 16.07890228 7.4375 16.0625 C4.983125 16.041875 2.52875 16.02125 0 16 C0 10.72 0 5.44 0 0 Z " fill="#2E0F40" transform="translate(204,56)"/>
<path d="M0 0 C4.95 0 9.9 0 15 0 C15 5.28 15 10.56 15 16 C10.05 16 5.1 16 0 16 C0 10.72 0 5.44 0 0 Z " fill="#2D113B" transform="translate(108,152)"/>
<path d="M0 0 C4.95 0 9.9 0 15 0 C15 4.95 15 9.9 15 15 C10.05 15 5.1 15 0 15 C0 10.05 0 5.1 0 0 Z " fill="#826066" transform="translate(44,200)"/>
<path d="M0 0 C4.95 0 9.9 0 15 0 C15 4.95 15 9.9 15 15 C10.05 15 5.1 15 0 15 C0 10.05 0 5.1 0 0 Z " fill="#4B2A4C" transform="translate(44,184)"/>
<path d="M0 0 C4.95 0 9.9 0 15 0 C15 4.95 15 9.9 15 15 C10.05 15 5.1 15 0 15 C0 10.05 0 5.1 0 0 Z " fill="#865C72" transform="translate(60,184)"/>
<path d="M0 0 C4.95 0 9.9 0 15 0 C15 4.95 15 9.9 15 15 C10.05 15 5.1 15 0 15 C0 10.05 0 5.1 0 0 Z " fill="#4B2A4C" transform="translate(60,168)"/>
<path d="M0 0 C4.95 0 9.9 0 15 0 C15 4.95 15 9.9 15 15 C10.05 15 5.1 15 0 15 C0 10.05 0 5.1 0 0 Z " fill="#6C3F6B" transform="translate(76,168)"/>
<path d="M0 0 C4.95 0 9.9 0 15 0 C15 4.95 15 9.9 15 15 C10.05 15 5.1 15 0 15 C0 10.05 0 5.1 0 0 Z " fill="#855D6E" transform="translate(92,152)"/>
<path d="M0 0 C4.95 0 9.9 0 15 0 C15 4.95 15 9.9 15 15 C10.05 15 5.1 15 0 15 C0 10.05 0 5.1 0 0 Z " fill="#4E2657" transform="translate(76,152)"/>
<path d="M0 0 C4.95 0 9.9 0 15 0 C15 4.95 15 9.9 15 15 C10.05 15 5.1 15 0 15 C0 10.05 0 5.1 0 0 Z " fill="#4A2C48" transform="translate(92,136)"/>
<path d="M0 0 C4.95 0 9.9 0 15 0 C15 4.95 15 9.9 15 15 C10.05 15 5.1 15 0 15 C0 10.05 0 5.1 0 0 Z " fill="#492C45" transform="translate(108,120)"/>
<path d="M0 0 C4.95 0 9.9 0 15 0 C15 4.95 15 9.9 15 15 C10.05 15 5.1 15 0 15 C0 10.05 0 5.1 0 0 Z " fill="#826064" transform="translate(124,120)"/>
<path d="M0 0 C4.95 0 9.9 0 15 0 C15 4.95 15 9.9 15 15 C10.05 15 5.1 15 0 15 C0 10.05 0 5.1 0 0 Z " fill="#482D44" transform="translate(124,104)"/>
<path d="M0 0 C4.95 0 9.9 0 15 0 C15 4.95 15 9.9 15 15 C10.05 15 5.1 15 0 15 C0 10.05 0 5.1 0 0 Z " fill="#4A2B48" transform="translate(140,88)"/>
<path d="M0 0 C4.95 0 9.9 0 15 0 C15 4.95 15 9.9 15 15 C10.05 15 5.1 15 0 15 C0 10.05 0 5.1 0 0 Z " fill="#855C70" transform="translate(156,88)"/>
<path d="M0 0 C4.95 0 9.9 0 15 0 C15 4.95 15 9.9 15 15 C10.05 15 5.1 15 0 15 C0 10.05 0 5.1 0 0 Z " fill="#654656" transform="translate(172,72)"/>
<path d="M0 0 C4.95 0 9.9 0 15 0 C15 4.95 15 9.9 15 15 C10.05 15 5.1 15 0 15 C0 10.05 0 5.1 0 0 Z " fill="#845E6D" transform="translate(188,56)"/>
<path d="M0 0 C4.95 0 9.9 0 15 0 C15 4.95 15 9.9 15 15 C10.05 15 5.1 15 0 15 C0 10.05 0 5.1 0 0 Z " fill="#4E2756" transform="translate(188,40)"/>
<path d="M0 0 C4.95 0 9.9 0 15 0 C15 4.95 15 9.9 15 15 C10.05 15 5.1 15 0 15 C0 10.05 0 5.1 0 0 Z " fill="#89587C" transform="translate(204,40)"/>
<path d="M0 0 C4.95 0 9.9 0 15 0 C15.09765625 10.83984375 15.09765625 10.83984375 15 14 C14 15 14 15 10.83984375 15.09765625 C7.2265625 15.06510417 3.61328125 15.03255208 0 15 C0 10.05 0 5.1 0 0 Z " fill="#2E103D" transform="translate(92,168)"/>
<path d="M0 0 C4.95 0 9.9 0 15 0 C15 4.95 15 9.9 15 15 C10.05 15 5.1 15 0 15 C0 10.05 0 5.1 0 0 Z " fill="#4F2A54" transform="translate(29,200)"/>
<path d="M0 0 C0.33 0 0.66 0 1 0 C1 4.95 1 9.9 1 15 C5.95 15 10.9 15 16 15 C16 10.05 16 5.1 16 0 C16.33 0 16.66 0 17 0 C17 5.28 17 10.56 17 16 C11.72 16 6.44 16 1 16 C1 21.28 1 26.56 1 32 C-4.28 32 -9.56 32 -15 32 C-15 37.28 -15 42.56 -15 48 C-20.28 48 -25.56 48 -31 48 C-31 51.3 -31 54.6 -31 58 C-31.33 58 -31.66 58 -32 58 C-32 54.7 -32 51.4 -32 48 C-36.95 48 -41.9 48 -47 48 C-47 47.67 -47 47.34 -47 47 C-42.05 47 -37.1 47 -32 47 C-32.0395679 42.10846529 -32.0395679 42.10846529 -32.09008789 37.21704102 C-32.09724913 35.47778283 -32.05024702 33.73854696 -32 32 C-31 31 -31 31 -27.62109375 30.90234375 C-26.22652923 30.90901631 -24.83198257 30.92097468 -23.4375 30.9375 C-22.72658203 30.94201172 -22.01566406 30.94652344 -21.28320312 30.95117188 C-19.52209987 30.96299136 -17.76103964 30.98092737 -16 31 C-16.01160156 29.92878906 -16.02320312 28.85757813 -16.03515625 27.75390625 C-16.04453299 26.35677257 -16.05363331 24.95963701 -16.0625 23.5625 C-16.07087891 22.85544922 -16.07925781 22.14839844 -16.08789062 21.41992188 C-16.09653588 19.61306441 -16.05220011 17.80612397 -16 16 C-15 15 -15 15 -11.62109375 14.90234375 C-10.22652508 14.90808576 -8.83198403 14.92109772 -7.4375 14.9375 C-4.983125 14.958125 -2.52875 14.97875 0 15 C0 10.05 0 5.1 0 0 Z M-15 16 C-15 20.95 -15 25.9 -15 31 C-10.05 31 -5.1 31 0 31 C0 26.05 0 21.1 0 16 C-4.95 16 -9.9 16 -15 16 Z M-31 32 C-31 36.95 -31 41.9 -31 47 C-26.05 47 -21.1 47 -16 47 C-16 42.05 -16 37.1 -16 32 C-20.95 32 -25.9 32 -31 32 Z " fill="#56384C" transform="translate(139,104)"/>
</svg>
